<?xml version="1.0" encoding="utf-8"?>
<!-- Generator: Adobe Illustrator 19.0.1, SVG Export Plug-In . SVG Version: 6.00 Build 0)  -->
<svg version="1.1" id="Layer_1" xmlns="http://www.w3.org/2000/svg" xmlns:xlink="http://www.w3.org/1999/xlink" x="0px" y="0px"
	 viewBox="0 0 600 39" style="enable-background:new 0 0 600 39;" xml:space="preserve">
<style type="text/css">
	.st0{fill:#A58753;stroke:#A58753;stroke-miterlimit:10;}
	.st1{fill-rule:evenodd;clip-rule:evenodd;fill:#A58753;stroke:#A58753;stroke-miterlimit:10;}
</style>
<g>
	<g>
		<path class="st0" d="M313.4,35.1c2.7-3.6,1.2-1.7,6.2-6.3c5.6-4.9,14.5-10.2,29.2-14.7c14.4-4.4,35-8.3,59.9-8.1
			C416,6,423.2,6.6,430,7.4c9.9,1.2,19.1,3.1,27.2,5.4c13.8,3.8,25.4,8.2,37.7,11.8c12.6,3.8,26.4,6.9,40,8.6
			c12,1.5,23.8,1.8,34.5,0.3c15.8-2.2,24.7-7.1,28.2-12c1.4-2,2-3.9,1.7-5.7c-0.2-3.3-3-6.3-7.2-8.6C588,5,581.5,3.1,572,1.9
			c-34-3.6-55.5,11.1-46.9-0.5c-8.7,4.3-1.5,8.2,1.9,8.8c6,1.1,10.2,0.7,13.2,0.3c8-0.9,14.6-4.5,23.6-5.6c8-0.9,18-0.8,26.2,2.3
			c9.1,3.5,8,10,5.6,13.4c-0.6,0.8-1.2,1.5-1.9,2.1l0,0c-3.9,3.5-10.3,6.6-17.8,8.5c-10.2,2.2-20.5,3-39.2,1
			c-14.1-1.7-30.3-6.1-49.8-12.8c-14.8-5.1-29-10.2-45.8-13.2c-3.6-0.6-7.2-1.2-10.9-1.6C417.3,3,404,2.6,392,3.3
			c-30.6,1.8-52.4,8.1-65.8,14.5c-13.7,6.6-18.9,13.4-22.9,18.6"/>
		<path class="st1" d="M390.6,17.7c-4.7-2.4-10.4-3.7-15.7-4.3c-1.3-0.1-2.6-0.2-3.9-0.3c-6-0.5-14.1,0.5-21.9,2.6
			c-7.8,2.1-15.3,5.2-20,9c-4.4,3.3-7.4,6.6-8.9,9.2c-0.2,0.3-0.3,0.6-0.5,0.9c0,0,0,0.1,0,0.1c0.2,0.1,0.5,0.1,0.7,0.2
			c1.2-2,3.4-4.6,6.7-7.2c3.6-3,8.6-6,14.5-8.1c6-2.1,12.6-3.7,18.1-4.2c4-0.4,9.8-0.8,15.1-0.3c2.2,0.2,4.7,0.6,6.9,1.2
			c3.7,1,8,2.6,10.1,4.5c2.2,1.9,3.2,3.8,2.9,6.1c-1,4-4.3,7.3-7,8.4c-4.7,2.8-16.2,4.1-20.9,1.2c-1.9-1.2-1.9-2.4-1.5-3.5
			c0.5-1,2.2-1.7,3.6-1.9c1.4-0.2,1.3-0.6,1.3-0.6c0-0.4-1.5-0.4-1.5-0.4c-3.3,0-1.2-1.7,2.9-1.9c8.3-0.8,8.9-3.5,5.1-3.9
			c-12.4-1.3-21.3,7-14.1,11.3c2,1.2,6.1,2.6,11.2,2.8c7.1,0.1,11.7-1.4,14.4-2.7c3.5-1.7,5-3.3,6.5-5.4c0.2-0.3,0.4-0.6,0.6-0.9
			C397.2,25.5,396.1,20.7,390.6,17.7z"/>
	</g>
</g>
<g>
	<g>
		<path class="st0" d="M286.6,35.1c-2.7-3.6-1.2-1.7-6.2-6.3c-5.6-4.9-14.5-10.2-29.2-14.7c-14.4-4.4-35-8.3-59.9-8.1
			c-7.4,0.1-14.6,0.6-21.4,1.5c-9.9,1.2-19.1,3.1-27.2,5.4c-13.8,3.8-25.4,8.2-37.7,11.8c-12.6,3.8-26.4,6.9-40,8.6
			c-12,1.5-23.8,1.8-34.5,0.3c-15.8-2.2-24.7-7.1-28.2-12c-1.4-2-2-3.9-1.7-5.7c0.2-3.3,3-6.3,7.2-8.6C12,5,18.5,3.1,27.9,1.9
			c34-3.6,55.5,11.1,46.9-0.5c8.7,4.3,1.5,8.2-1.9,8.8c-6,1.1-10.2,0.7-13.2,0.3C51.7,9.7,45.1,6,36,5c-8-0.9-18-0.8-26.2,2.3
			c-9.1,3.5-8,10-5.6,13.4c0.6,0.8,1.2,1.5,1.9,2.1l0,0c3.9,3.5,10.3,6.6,17.8,8.5c10.2,2.2,20.5,3,39.2,1
			c14.1-1.7,30.3-6.1,49.8-12.8c14.8-5.1,29-10.2,45.8-13.2c3.6-0.6,7.2-1.2,10.9-1.6c13.1-1.6,26.4-2,38.4-1.3
			c30.6,1.8,52.4,8.1,65.8,14.5c13.7,6.6,18.9,13.4,22.9,18.6"/>
		<path class="st1" d="M209.4,17.7c4.7-2.4,10.4-3.7,15.7-4.3c1.3-0.1,2.6-0.2,3.9-0.3c6-0.5,14.1,0.5,21.9,2.6
			c7.8,2.1,15.3,5.2,20,9c4.4,3.3,7.4,6.6,8.9,9.2c0.2,0.3,0.3,0.6,0.5,0.9c0,0,0,0.1,0,0.1c-0.2,0.1-0.5,0.1-0.7,0.2
			c-1.2-2-3.4-4.6-6.7-7.2c-3.6-3-8.6-6-14.5-8.1c-6-2.1-12.6-3.7-18.1-4.2c-4-0.4-9.8-0.8-15.1-0.3c-2.2,0.2-4.7,0.6-6.9,1.2
			c-3.7,1-8,2.6-10.1,4.5c-2.2,1.9-3.2,3.8-2.9,6.1c1,4,4.3,7.3,7,8.4c4.7,2.8,16.2,4.1,20.9,1.2c1.9-1.2,1.9-2.4,1.5-3.5
			c-0.5-1-2.2-1.7-3.6-1.9c-1.4-0.2-1.3-0.6-1.3-0.6c0-0.4,1.5-0.4,1.5-0.4c3.3,0,1.2-1.7-2.9-1.9c-8.3-0.8-8.9-3.5-5.1-3.9
			c12.4-1.3,21.3,7,14.1,11.3c-2,1.2-6.1,2.6-11.2,2.8c-7.1,0.1-11.7-1.4-14.4-2.7c-3.5-1.7-5-3.3-6.5-5.4c-0.2-0.3-0.4-0.6-0.6-0.9
			C202.8,25.5,203.8,20.7,209.4,17.7z"/>
	</g>
</g>
</svg>
